<mxfile host="app.diagrams.net" modified="2020-10-14T03:46:37.270Z" agent="5.0 (Windows NT 10.0; Win64; x64) AppleWebKit/537.36 (KHTML, like Gecko) Chrome/86.0.4240.75 Safari/537.36" etag="Caf-DqsCijFV4So4hmJj" version="13.7.9" type="github">
  <diagram id="C5RBs43oDa-KdzZeNtuy" name="Page-1">
    <mxGraphModel dx="1848" dy="1698" grid="1" gridSize="10" guides="1" tooltips="1" connect="1" arrows="1" fold="1" page="1" pageScale="1" pageWidth="827" pageHeight="1169" math="0" shadow="0">
      <root>
        <mxCell id="WIyWlLk6GJQsqaUBKTNV-0" />
        <mxCell id="WIyWlLk6GJQsqaUBKTNV-1" parent="WIyWlLk6GJQsqaUBKTNV-0" />
        <mxCell id="Ki4WGWcrXDJ5YBPxNS_K-37" style="edgeStyle=none;rounded=0;orthogonalLoop=1;jettySize=auto;html=1;entryX=0.537;entryY=0.004;entryDx=0;entryDy=0;entryPerimeter=0;" edge="1" parent="WIyWlLk6GJQsqaUBKTNV-1" source="Ki4WGWcrXDJ5YBPxNS_K-0" target="Ki4WGWcrXDJ5YBPxNS_K-32">
          <mxGeometry relative="1" as="geometry" />
        </mxCell>
        <mxCell id="Ki4WGWcrXDJ5YBPxNS_K-83" style="edgeStyle=none;rounded=0;orthogonalLoop=1;jettySize=auto;html=1;exitX=0.5;exitY=0;exitDx=0;exitDy=0;entryX=0.425;entryY=1.038;entryDx=0;entryDy=0;entryPerimeter=0;" edge="1" parent="WIyWlLk6GJQsqaUBKTNV-1" source="Ki4WGWcrXDJ5YBPxNS_K-0" target="Ki4WGWcrXDJ5YBPxNS_K-66">
          <mxGeometry relative="1" as="geometry" />
        </mxCell>
        <mxCell id="Ki4WGWcrXDJ5YBPxNS_K-0" value="Vapt Vupt" style="swimlane;fontStyle=1;align=center;verticalAlign=top;childLayout=stackLayout;horizontal=1;startSize=26;horizontalStack=0;resizeParent=1;resizeParentMax=0;resizeLast=0;collapsible=1;marginBottom=0;" vertex="1" parent="WIyWlLk6GJQsqaUBKTNV-1">
          <mxGeometry x="220" y="70" width="160" height="150" as="geometry">
            <mxRectangle x="230" y="180" width="100" height="26" as="alternateBounds" />
          </mxGeometry>
        </mxCell>
        <mxCell id="Ki4WGWcrXDJ5YBPxNS_K-1" value="- razaosocial : string&#xa;- contato: int&#xa;- telefone : int&#xa;- email: string" style="text;strokeColor=none;fillColor=none;align=left;verticalAlign=top;spacingLeft=4;spacingRight=4;overflow=hidden;rotatable=0;points=[[0,0.5],[1,0.5]];portConstraint=eastwest;" vertex="1" parent="Ki4WGWcrXDJ5YBPxNS_K-0">
          <mxGeometry y="26" width="160" height="64" as="geometry" />
        </mxCell>
        <mxCell id="Ki4WGWcrXDJ5YBPxNS_K-2" value="" style="line;strokeWidth=1;fillColor=none;align=left;verticalAlign=middle;spacingTop=-1;spacingLeft=3;spacingRight=3;rotatable=0;labelPosition=right;points=[];portConstraint=eastwest;" vertex="1" parent="Ki4WGWcrXDJ5YBPxNS_K-0">
          <mxGeometry y="90" width="160" height="8" as="geometry" />
        </mxCell>
        <mxCell id="Ki4WGWcrXDJ5YBPxNS_K-3" value="+ cadastrarUsuario ()&#xa;+ cadastrar E-mail ()&#xa;+ agendarServiços ()" style="text;strokeColor=none;fillColor=none;align=left;verticalAlign=top;spacingLeft=4;spacingRight=4;overflow=hidden;rotatable=0;points=[[0,0.5],[1,0.5]];portConstraint=eastwest;" vertex="1" parent="Ki4WGWcrXDJ5YBPxNS_K-0">
          <mxGeometry y="98" width="160" height="52" as="geometry" />
        </mxCell>
        <mxCell id="Ki4WGWcrXDJ5YBPxNS_K-21" style="edgeStyle=none;rounded=0;orthogonalLoop=1;jettySize=auto;html=1;exitX=0;exitY=0.5;exitDx=0;exitDy=0;entryX=1.019;entryY=0.317;entryDx=0;entryDy=0;entryPerimeter=0;" edge="1" parent="WIyWlLk6GJQsqaUBKTNV-1" source="Ki4WGWcrXDJ5YBPxNS_K-1" target="Ki4WGWcrXDJ5YBPxNS_K-17">
          <mxGeometry relative="1" as="geometry" />
        </mxCell>
        <mxCell id="Ki4WGWcrXDJ5YBPxNS_K-23" style="edgeStyle=none;rounded=0;orthogonalLoop=1;jettySize=auto;html=1;exitX=1;exitY=0.5;exitDx=0;exitDy=0;entryX=0;entryY=0.5;entryDx=0;entryDy=0;" edge="1" parent="WIyWlLk6GJQsqaUBKTNV-1" source="Ki4WGWcrXDJ5YBPxNS_K-1" target="Ki4WGWcrXDJ5YBPxNS_K-5">
          <mxGeometry relative="1" as="geometry" />
        </mxCell>
        <mxCell id="Ki4WGWcrXDJ5YBPxNS_K-55" style="edgeStyle=none;rounded=0;orthogonalLoop=1;jettySize=auto;html=1;exitX=0.5;exitY=0;exitDx=0;exitDy=0;" edge="1" parent="WIyWlLk6GJQsqaUBKTNV-1" source="Ki4WGWcrXDJ5YBPxNS_K-51" target="Ki4WGWcrXDJ5YBPxNS_K-35">
          <mxGeometry relative="1" as="geometry" />
        </mxCell>
        <mxCell id="Ki4WGWcrXDJ5YBPxNS_K-57" style="edgeStyle=none;rounded=0;orthogonalLoop=1;jettySize=auto;html=1;exitX=1;exitY=0.5;exitDx=0;exitDy=0;entryX=-0.004;entryY=0.73;entryDx=0;entryDy=0;entryPerimeter=0;" edge="1" parent="WIyWlLk6GJQsqaUBKTNV-1" source="Ki4WGWcrXDJ5YBPxNS_K-8" target="Ki4WGWcrXDJ5YBPxNS_K-33">
          <mxGeometry relative="1" as="geometry" />
        </mxCell>
        <mxCell id="Ki4WGWcrXDJ5YBPxNS_K-8" value="Carro" style="swimlane;fontStyle=1;align=center;verticalAlign=top;childLayout=stackLayout;horizontal=1;startSize=26;horizontalStack=0;resizeParent=1;resizeParentMax=0;resizeLast=0;collapsible=1;marginBottom=0;" vertex="1" parent="WIyWlLk6GJQsqaUBKTNV-1">
          <mxGeometry x="-90" y="440" width="160" height="140" as="geometry" />
        </mxCell>
        <mxCell id="Ki4WGWcrXDJ5YBPxNS_K-9" value="+ placa: string&#xa;+ marca: string&#xa;+ cor: string" style="text;strokeColor=none;fillColor=none;align=left;verticalAlign=top;spacingLeft=4;spacingRight=4;overflow=hidden;rotatable=0;points=[[0,0.5],[1,0.5]];portConstraint=eastwest;" vertex="1" parent="Ki4WGWcrXDJ5YBPxNS_K-8">
          <mxGeometry y="26" width="160" height="44" as="geometry" />
        </mxCell>
        <mxCell id="Ki4WGWcrXDJ5YBPxNS_K-10" value="" style="line;strokeWidth=1;fillColor=none;align=left;verticalAlign=middle;spacingTop=-1;spacingLeft=3;spacingRight=3;rotatable=0;labelPosition=right;points=[];portConstraint=eastwest;" vertex="1" parent="Ki4WGWcrXDJ5YBPxNS_K-8">
          <mxGeometry y="70" width="160" height="8" as="geometry" />
        </mxCell>
        <mxCell id="Ki4WGWcrXDJ5YBPxNS_K-11" value="+ incluirCarro ()&#xa;+ alterarCarro ()&#xa;+ excluirCarro ()&#xa;+ buscarCarro ()&#xa;" style="text;strokeColor=none;fillColor=none;align=left;verticalAlign=top;spacingLeft=4;spacingRight=4;overflow=hidden;rotatable=0;points=[[0,0.5],[1,0.5]];portConstraint=eastwest;" vertex="1" parent="Ki4WGWcrXDJ5YBPxNS_K-8">
          <mxGeometry y="78" width="160" height="62" as="geometry" />
        </mxCell>
        <mxCell id="Ki4WGWcrXDJ5YBPxNS_K-32" value="Cadastro do veículo" style="swimlane;fontStyle=1;align=center;verticalAlign=top;childLayout=stackLayout;horizontal=1;startSize=26;horizontalStack=0;resizeParent=1;resizeParentMax=0;resizeLast=0;collapsible=1;marginBottom=0;" vertex="1" parent="WIyWlLk6GJQsqaUBKTNV-1">
          <mxGeometry x="200" y="400" width="190" height="200" as="geometry" />
        </mxCell>
        <mxCell id="Ki4WGWcrXDJ5YBPxNS_K-33" value="+ marca: string&#xa;+ cor: string&#xa;+ placa: string&#xa;+ data_entrada: int&#xa;+ data_saida: int&#xa;+ valor_hora: decimal&#xa;+ valor_pago: decimal&#xa;+ numero_ordem de serviço: int" style="text;strokeColor=none;fillColor=none;align=left;verticalAlign=top;spacingLeft=4;spacingRight=4;overflow=hidden;rotatable=0;points=[[0,0.5],[1,0.5]];portConstraint=eastwest;" vertex="1" parent="Ki4WGWcrXDJ5YBPxNS_K-32">
          <mxGeometry y="26" width="190" height="114" as="geometry" />
        </mxCell>
        <mxCell id="Ki4WGWcrXDJ5YBPxNS_K-34" value="" style="line;strokeWidth=1;fillColor=none;align=left;verticalAlign=middle;spacingTop=-1;spacingLeft=3;spacingRight=3;rotatable=0;labelPosition=right;points=[];portConstraint=eastwest;" vertex="1" parent="Ki4WGWcrXDJ5YBPxNS_K-32">
          <mxGeometry y="140" width="190" height="8" as="geometry" />
        </mxCell>
        <mxCell id="Ki4WGWcrXDJ5YBPxNS_K-35" value="+ agendarServiço ()&#xa;+ calculo_Valorpago ()&#xa;+ gerar_Ordemserviço ()&#xa;" style="text;strokeColor=none;fillColor=none;align=left;verticalAlign=top;spacingLeft=4;spacingRight=4;overflow=hidden;rotatable=0;points=[[0,0.5],[1,0.5]];portConstraint=eastwest;" vertex="1" parent="Ki4WGWcrXDJ5YBPxNS_K-32">
          <mxGeometry y="148" width="190" height="52" as="geometry" />
        </mxCell>
        <mxCell id="Ki4WGWcrXDJ5YBPxNS_K-70" value="FormaPagamento" style="swimlane;fontStyle=1;align=center;verticalAlign=top;childLayout=stackLayout;horizontal=1;startSize=26;horizontalStack=0;resizeParent=1;resizeParentMax=0;resizeLast=0;collapsible=1;marginBottom=0;" vertex="1" parent="WIyWlLk6GJQsqaUBKTNV-1">
          <mxGeometry x="570" y="440" width="160" height="120" as="geometry" />
        </mxCell>
        <mxCell id="Ki4WGWcrXDJ5YBPxNS_K-71" value="+ debito: decimal&#xa;+ credito: decimal&#xa;+ boleto: decimal" style="text;strokeColor=none;fillColor=none;align=left;verticalAlign=top;spacingLeft=4;spacingRight=4;overflow=hidden;rotatable=0;points=[[0,0.5],[1,0.5]];portConstraint=eastwest;" vertex="1" parent="Ki4WGWcrXDJ5YBPxNS_K-70">
          <mxGeometry y="26" width="160" height="44" as="geometry" />
        </mxCell>
        <mxCell id="Ki4WGWcrXDJ5YBPxNS_K-72" value="" style="line;strokeWidth=1;fillColor=none;align=left;verticalAlign=middle;spacingTop=-1;spacingLeft=3;spacingRight=3;rotatable=0;labelPosition=right;points=[];portConstraint=eastwest;" vertex="1" parent="Ki4WGWcrXDJ5YBPxNS_K-70">
          <mxGeometry y="70" width="160" height="8" as="geometry" />
        </mxCell>
        <mxCell id="Ki4WGWcrXDJ5YBPxNS_K-73" value="&#xa;+ alterarPagamento ()&#xa;&#xa;" style="text;strokeColor=none;fillColor=none;align=left;verticalAlign=top;spacingLeft=4;spacingRight=4;overflow=hidden;rotatable=0;points=[[0,0.5],[1,0.5]];portConstraint=eastwest;" vertex="1" parent="Ki4WGWcrXDJ5YBPxNS_K-70">
          <mxGeometry y="78" width="160" height="42" as="geometry" />
        </mxCell>
        <mxCell id="Ki4WGWcrXDJ5YBPxNS_K-74" value="Função" style="swimlane;fontStyle=1;align=center;verticalAlign=top;childLayout=stackLayout;horizontal=1;startSize=26;horizontalStack=0;resizeParent=1;resizeParentMax=0;resizeLast=0;collapsible=1;marginBottom=0;" vertex="1" parent="WIyWlLk6GJQsqaUBKTNV-1">
          <mxGeometry x="570" y="700" width="160" height="86" as="geometry" />
        </mxCell>
        <mxCell id="Ki4WGWcrXDJ5YBPxNS_K-75" value="+ field: type" style="text;strokeColor=none;fillColor=none;align=left;verticalAlign=top;spacingLeft=4;spacingRight=4;overflow=hidden;rotatable=0;points=[[0,0.5],[1,0.5]];portConstraint=eastwest;" vertex="1" parent="Ki4WGWcrXDJ5YBPxNS_K-74">
          <mxGeometry y="26" width="160" height="26" as="geometry" />
        </mxCell>
        <mxCell id="Ki4WGWcrXDJ5YBPxNS_K-76" value="" style="line;strokeWidth=1;fillColor=none;align=left;verticalAlign=middle;spacingTop=-1;spacingLeft=3;spacingRight=3;rotatable=0;labelPosition=right;points=[];portConstraint=eastwest;" vertex="1" parent="Ki4WGWcrXDJ5YBPxNS_K-74">
          <mxGeometry y="52" width="160" height="8" as="geometry" />
        </mxCell>
        <mxCell id="Ki4WGWcrXDJ5YBPxNS_K-77" value="+ method(type): type" style="text;strokeColor=none;fillColor=none;align=left;verticalAlign=top;spacingLeft=4;spacingRight=4;overflow=hidden;rotatable=0;points=[[0,0.5],[1,0.5]];portConstraint=eastwest;" vertex="1" parent="Ki4WGWcrXDJ5YBPxNS_K-74">
          <mxGeometry y="60" width="160" height="26" as="geometry" />
        </mxCell>
        <mxCell id="Ki4WGWcrXDJ5YBPxNS_K-82" style="edgeStyle=none;rounded=0;orthogonalLoop=1;jettySize=auto;html=1;exitX=1;exitY=0.5;exitDx=0;exitDy=0;entryX=0.013;entryY=0.364;entryDx=0;entryDy=0;entryPerimeter=0;" edge="1" parent="WIyWlLk6GJQsqaUBKTNV-1" source="Ki4WGWcrXDJ5YBPxNS_K-33" target="Ki4WGWcrXDJ5YBPxNS_K-71">
          <mxGeometry relative="1" as="geometry" />
        </mxCell>
        <mxCell id="Ki4WGWcrXDJ5YBPxNS_K-4" value="Funcionario" style="swimlane;fontStyle=1;align=center;verticalAlign=top;childLayout=stackLayout;horizontal=1;startSize=26;horizontalStack=0;resizeParent=1;resizeParentMax=0;resizeLast=0;collapsible=1;marginBottom=0;" vertex="1" parent="WIyWlLk6GJQsqaUBKTNV-1">
          <mxGeometry x="550" y="-40" width="160" height="270" as="geometry" />
        </mxCell>
        <mxCell id="Ki4WGWcrXDJ5YBPxNS_K-5" value="- CPF: int&#xa;- telefone: int&#xa;- e-mail: string&#xa;- endereço: string&#xa;- data de admissao: string&#xa;- data de demissao: string&#xa;- carteira de trabalho: string&#xa;- salario: decimal&#xa;- login: string&#xa;- senha: string" style="text;strokeColor=none;fillColor=none;align=left;verticalAlign=top;spacingLeft=4;spacingRight=4;overflow=hidden;rotatable=0;points=[[0,0.5],[1,0.5]];portConstraint=eastwest;" vertex="1" parent="Ki4WGWcrXDJ5YBPxNS_K-4">
          <mxGeometry y="26" width="160" height="144" as="geometry" />
        </mxCell>
        <mxCell id="Ki4WGWcrXDJ5YBPxNS_K-6" value="" style="line;strokeWidth=1;fillColor=none;align=left;verticalAlign=middle;spacingTop=-1;spacingLeft=3;spacingRight=3;rotatable=0;labelPosition=right;points=[];portConstraint=eastwest;" vertex="1" parent="Ki4WGWcrXDJ5YBPxNS_K-4">
          <mxGeometry y="170" width="160" height="8" as="geometry" />
        </mxCell>
        <mxCell id="Ki4WGWcrXDJ5YBPxNS_K-7" value="+ adicionarFuncionario ()&#xa;+ alterarFuncionario ()&#xa;+ excluirFuncionario ()&#xa;+ buscarFuncionario ()&#xa;+ validarCPF ()&#xa;+ verificarCEP ()" style="text;strokeColor=none;fillColor=none;align=left;verticalAlign=top;spacingLeft=4;spacingRight=4;overflow=hidden;rotatable=0;points=[[0,0.5],[1,0.5]];portConstraint=eastwest;" vertex="1" parent="Ki4WGWcrXDJ5YBPxNS_K-4">
          <mxGeometry y="178" width="160" height="92" as="geometry" />
        </mxCell>
        <mxCell id="Ki4WGWcrXDJ5YBPxNS_K-16" value="Cliente" style="swimlane;fontStyle=1;align=center;verticalAlign=top;childLayout=stackLayout;horizontal=1;startSize=26;horizontalStack=0;resizeParent=1;resizeParentMax=0;resizeLast=0;collapsible=1;marginBottom=0;" vertex="1" parent="WIyWlLk6GJQsqaUBKTNV-1">
          <mxGeometry x="-80" width="160" height="220" as="geometry" />
        </mxCell>
        <mxCell id="Ki4WGWcrXDJ5YBPxNS_K-17" value="- nome: string&#xa;- CPF: int&#xa;- telefone: int&#xa;- endereço: string&#xa;- e-mail: string&#xa;- carro: int" style="text;strokeColor=none;fillColor=none;align=left;verticalAlign=top;spacingLeft=4;spacingRight=4;overflow=hidden;rotatable=0;points=[[0,0.5],[1,0.5]];portConstraint=eastwest;" vertex="1" parent="Ki4WGWcrXDJ5YBPxNS_K-16">
          <mxGeometry y="26" width="160" height="94" as="geometry" />
        </mxCell>
        <mxCell id="Ki4WGWcrXDJ5YBPxNS_K-18" value="" style="line;strokeWidth=1;fillColor=none;align=left;verticalAlign=middle;spacingTop=-1;spacingLeft=3;spacingRight=3;rotatable=0;labelPosition=right;points=[];portConstraint=eastwest;" vertex="1" parent="Ki4WGWcrXDJ5YBPxNS_K-16">
          <mxGeometry y="120" width="160" height="8" as="geometry" />
        </mxCell>
        <mxCell id="Ki4WGWcrXDJ5YBPxNS_K-19" value="+ adicionarCliente ()&#xa;+ alterarCliente ()&#xa;+ excluirCliente ()&#xa;+ buscarCliente ()&#xa;+ validarCPF ()&#xa;+ verificarCEP ()" style="text;strokeColor=none;fillColor=none;align=left;verticalAlign=top;spacingLeft=4;spacingRight=4;overflow=hidden;rotatable=0;points=[[0,0.5],[1,0.5]];portConstraint=eastwest;" vertex="1" parent="Ki4WGWcrXDJ5YBPxNS_K-16">
          <mxGeometry y="128" width="160" height="92" as="geometry" />
        </mxCell>
        <mxCell id="Ki4WGWcrXDJ5YBPxNS_K-63" value="Atendimento SAC" style="swimlane;fontStyle=1;align=center;verticalAlign=top;childLayout=stackLayout;horizontal=1;startSize=26;horizontalStack=0;resizeParent=1;resizeParentMax=0;resizeLast=0;collapsible=1;marginBottom=0;" vertex="1" parent="WIyWlLk6GJQsqaUBKTNV-1">
          <mxGeometry x="214" y="-220" width="200" height="140" as="geometry" />
        </mxCell>
        <mxCell id="Ki4WGWcrXDJ5YBPxNS_K-64" value="- nomeCliente: string&#xa;- descricaoProblema: string&#xa;- numReclamacao: int" style="text;strokeColor=none;fillColor=none;align=left;verticalAlign=top;spacingLeft=4;spacingRight=4;overflow=hidden;rotatable=0;points=[[0,0.5],[1,0.5]];portConstraint=eastwest;" vertex="1" parent="Ki4WGWcrXDJ5YBPxNS_K-63">
          <mxGeometry y="26" width="200" height="54" as="geometry" />
        </mxCell>
        <mxCell id="Ki4WGWcrXDJ5YBPxNS_K-65" value="" style="line;strokeWidth=1;fillColor=none;align=left;verticalAlign=middle;spacingTop=-1;spacingLeft=3;spacingRight=3;rotatable=0;labelPosition=right;points=[];portConstraint=eastwest;" vertex="1" parent="Ki4WGWcrXDJ5YBPxNS_K-63">
          <mxGeometry y="80" width="200" height="8" as="geometry" />
        </mxCell>
        <mxCell id="Ki4WGWcrXDJ5YBPxNS_K-66" value="+ solucaoReclamacao: string&#xa;+atualizarStatusReclamacao: string" style="text;strokeColor=none;fillColor=none;align=left;verticalAlign=top;spacingLeft=4;spacingRight=4;overflow=hidden;rotatable=0;points=[[0,0.5],[1,0.5]];portConstraint=eastwest;" vertex="1" parent="Ki4WGWcrXDJ5YBPxNS_K-63">
          <mxGeometry y="88" width="200" height="52" as="geometry" />
        </mxCell>
        <mxCell id="Ki4WGWcrXDJ5YBPxNS_K-51" value="Lavagem" style="swimlane;fontStyle=1;align=center;verticalAlign=top;childLayout=stackLayout;horizontal=1;startSize=26;horizontalStack=0;resizeParent=1;resizeParentMax=0;resizeLast=0;collapsible=1;marginBottom=0;" vertex="1" parent="WIyWlLk6GJQsqaUBKTNV-1">
          <mxGeometry x="214" y="740" width="160" height="124" as="geometry" />
        </mxCell>
        <mxCell id="Ki4WGWcrXDJ5YBPxNS_K-52" value="- valor: decimal&#xa;- status:string&#xa;+ previsao:date&#xa;+ forma_pagamento: int&#xa;" style="text;strokeColor=none;fillColor=none;align=left;verticalAlign=top;spacingLeft=4;spacingRight=4;overflow=hidden;rotatable=0;points=[[0,0.5],[1,0.5]];portConstraint=eastwest;" vertex="1" parent="Ki4WGWcrXDJ5YBPxNS_K-51">
          <mxGeometry y="26" width="160" height="64" as="geometry" />
        </mxCell>
        <mxCell id="Ki4WGWcrXDJ5YBPxNS_K-53" value="" style="line;strokeWidth=1;fillColor=none;align=left;verticalAlign=middle;spacingTop=-1;spacingLeft=3;spacingRight=3;rotatable=0;labelPosition=right;points=[];portConstraint=eastwest;" vertex="1" parent="Ki4WGWcrXDJ5YBPxNS_K-51">
          <mxGeometry y="90" width="160" height="8" as="geometry" />
        </mxCell>
        <mxCell id="Ki4WGWcrXDJ5YBPxNS_K-54" value="+ Salvarlavagem ()" style="text;strokeColor=none;fillColor=none;align=left;verticalAlign=top;spacingLeft=4;spacingRight=4;overflow=hidden;rotatable=0;points=[[0,0.5],[1,0.5]];portConstraint=eastwest;" vertex="1" parent="Ki4WGWcrXDJ5YBPxNS_K-51">
          <mxGeometry y="98" width="160" height="26" as="geometry" />
        </mxCell>
      </root>
    </mxGraphModel>
  </diagram>
</mxfile>
